<?xml version="1.0" encoding="utf-8"?>
<!-- Generator: Adobe Illustrator 25.2.1, SVG Export Plug-In . SVG Version: 6.00 Build 0)  -->
<svg version="1.1" id="Слой_2" xmlns="http://www.w3.org/2000/svg" xmlns:xlink="http://www.w3.org/1999/xlink" x="0px" y="0px"
	 viewBox="0 0 3200 2000" style="enable-background:new 0 0 3200 2000;" xml:space="preserve">
<style type="text/css">
	.st0{display:none;fill:#FFFFFF;}
	.st1{fill:#EDF4FF;}
	.st2{fill:#DBE7F7;}
	.st3{fill:#2C3A64;}
	.st4{fill:#35488B;}
	.st5{fill:#FFB27D;}
	.st6{fill:#EA9C68;}
	.st7{fill:#FFFFFF;}
	.st8{fill:#FFB93E;}
	.st9{fill:#FFA412;}
	.st10{fill:#AA443E;}
	.st11{fill:#415BA3;}
	.st12{fill:#93322F;}
	.st13{fill:#ED985F;}
	.st14{fill:#D35C2B;}
	.st15{fill:#F99746;}
	.st16{fill:#ED7D2B;}
	.st17{fill:#FFECE1;}
	.st18{fill:#6BB7BF;}
	.st19{fill:#599DAD;}
	.st20{fill:#D39E7A;}
	.st21{fill:#D36820;}
	.st22{fill:#CAD9EF;}
	.st23{fill:#2E3552;}
</style>
<rect class="st0" width="3200" height="2000"/>
<g>
	<path class="st1" d="M370.8,1651.27c0.13,0.09,2480.42-0.29,2480.42-0.29s7.17-14.69,16.15-33.92
		c6.66-14.25,14.9-33.17,23.47-55.93v-0.01c1.6-4.23,3.21-8.6,4.81-13.1c2.25-6.31,4.51-12.87,6.76-19.66
		c0.83-2.52,1.66-5.07,2.49-7.65c4.96-15.48,9.78-32.1,14.23-49.68c0.31-1.23,0.62-2.46,0.93-3.7c1.66-6.73,3.27-13.6,4.82-20.61
		c0.85-3.89,1.68-7.82,2.5-11.78l0.16-0.82c0.3-1.47,0.59-2.94,0.88-4.42c5.58-28.26,9.89-58.38,12.1-89.81
		c0.39-5.53,0.71-11.11,0.96-16.73c0.26-5.67,0.44-11.38,0.55-17.13c0.69-35.69-1.54-72.73-7.84-110.37
		c-2.46-14.74-5.54-29.57-9.32-44.44c-2.76-10.87-5.88-21.74-9.42-32.65c-0.65-2.03-1.31-4.06-2.01-6.09
		c-8.16-24.27-18.3-48.54-30.7-72.63c-1.11-2.16-2.24-4.34-3.41-6.51c-9.3-17.46-19.82-34.83-31.65-51.99
		c-1.21-1.76-2.43-3.51-3.68-5.27c-6.9-9.77-14.24-19.48-22.04-29.12c-11.34-14.06-23.69-27.94-37.04-41.64
		c-18.49-18.96-36.83-36.16-55-51.72c-7.47-6.43-14.93-12.57-22.35-18.44c-6.36-5.05-12.71-9.89-19.02-14.53
		c-0.35-0.26-0.73-0.53-1.08-0.79c-14.62-10.74-29.12-20.47-43.46-29.26c-2.93-1.79-5.85-3.55-8.78-5.28
		c-14.08-8.3-28.04-15.71-41.86-22.31c-3.02-1.44-6.02-2.85-9.03-4.21c-94.5-43.01-182.1-48.61-259.59-41.48
		c-59.91,5.51-113.79,18.64-160.13,28.01c-3.04,0.62-6.05,1.22-9.03,1.8c-30.17,5.86-56.96,9.72-79.94,8.22
		c-36.69-2.4-66.6-24.69-98.75-57.57c-2.34-2.4-4.7-4.84-7.07-7.35c-18.74-19.8-38.43-42.88-60.81-67.47
		c-4.08-4.49-8.26-9.02-12.53-13.59c-8.45-9.05-17.3-18.25-26.61-27.53c-1.43-1.43-2.88-2.86-4.34-4.3
		c-3.14-3.09-6.35-6.18-9.61-9.28c-1.44-1.37-2.88-2.74-4.34-4.11c-10.58-9.93-21.75-19.86-33.61-29.72
		c-51.17-42.53-115.19-83.52-199.91-114.87c-0.04-0.02-0.08-0.03-0.12-0.05c-35.79-13.24-75.28-24.75-119.04-33.93
		c-48.08-10.09-99.72-17.62-152.74-22.02c-12.78-1.06-25.63-1.94-38.53-2.63c-13.85-0.74-27.75-1.26-41.67-1.55
		c-8.35-0.17-16.72-0.26-25.08-0.27c-20.69-0.04-41.38,0.46-61.95,1.52c-7.3,0.36-14.58,0.8-21.84,1.31
		c-89,6.24-174.74,23.08-247.1,53.2c-50.75,21.11-241.94,115.54-298.03,275.29c-17.72,50.42-21.97,107.34-4.11,170.52
		c63.23,223.57-33.04,251.39-153.48,357.93C293.63,1361.06,241.86,1552.92,370.8,1651.27z"/>
	<g>
		<path class="st2" d="M1712.19,643.12c-65.01,8.42-133.15,7.68-202.52-2.2c-70.06-9.98-137.97-8.16-201.82,5.43
			c-51.11,10.88-99.75,29.26-144.56,54.66c-61.1,34.62-97.35,80.3-110.81,97.39c13.23-16.79,54.18-57.54,114.44-91.63
			c44.19-25,92.16-43.11,142.56-53.81c63.01-13.38,130.04-15.16,199.24-5.3c69.97,9.97,138.73,10.72,204.35,2.22
			c52.52-6.8,103.17-19.51,150.53-37.78c80.75-31.14,120.24-73.4,120.67-73.77c-0.42,0.36-43.44,36.7-123.12,67.43
			C1814.29,623.81,1764.17,636.39,1712.19,643.12z"/>
		<path class="st2" d="M1712.19,598.37c-65.01,8.42-133.15,7.68-202.52-2.2c-70.06-9.98-137.97-8.16-201.82,5.43
			c-51.11,10.88-99.75,29.27-144.56,54.66c-61.1,34.62-97.35,80.3-110.81,97.39c13.23-16.79,54.18-57.54,114.44-91.63
			c44.19-25,92.16-43.11,142.56-53.81c63.01-13.38,130.04-15.16,199.24-5.3c69.97,9.97,138.73,10.72,204.35,2.22
			c52.52-6.81,103.17-19.52,150.53-37.78c80.75-31.14,120.24-73.4,120.67-73.77c-0.42,0.36-43.44,36.7-123.12,67.43
			C1814.29,579.06,1764.17,591.63,1712.19,598.37z"/>
		<path class="st2" d="M1712.19,546.19c-65.01,8.42-133.15,7.68-202.52-2.2c-70.06-9.98-137.97-8.16-201.82,5.43
			c-51.11,10.88-99.75,29.27-144.56,54.66c-61.1,34.62-97.35,80.3-110.81,97.39c13.23-16.79,54.18-57.54,114.44-91.63
			c44.19-25,92.16-43.11,142.56-53.81c63.01-13.38,130.04-15.16,199.24-5.3c69.97,9.97,138.73,10.72,204.35,2.22
			c52.52-6.8,103.17-19.52,150.53-37.78c80.75-31.14,120.24-73.4,120.67-73.77c-0.42,0.36-43.44,36.7-123.12,67.43
			C1814.29,526.88,1764.17,539.45,1712.19,546.19z"/>
		<path class="st2" d="M1166.92,560.04c44.19-25,92.16-43.11,142.56-53.81c63.01-13.38,130.04-15.16,199.24-5.3
			c69.97,9.97,138.73,10.72,204.35,2.22c52.52-6.8,103.17-19.52,150.53-37.78c80.75-31.14,120.24-73.4,120.67-73.77
			c-0.42,0.36-43.44,36.7-123.12,67.43c-46.86,18.07-96.98,30.64-148.96,37.38c-65.01,8.42-133.15,7.68-202.52-2.2
			c-70.06-9.98-137.97-8.16-201.82,5.43c-51.11,10.88-99.75,29.27-144.56,54.66c-61.1,34.62-97.35,80.3-110.81,97.39
			C1065.71,634.88,1106.66,594.13,1166.92,560.04z"/>
	</g>
	<g>
		<path class="st3" d="M2413.12,1645.3h123.77c0,0,2.36-20.14-0.48-37.35c-0.34-2.1-1.43-3.98-3.06-5.64
			c-7.25,2.46-17.89,4.19-29.74-0.06c-9.71-3.48-16.89-8.79-21.89-13.62c-1.28,1.24-26.85,25.61-38.67,25.61
			C2430.93,1614.24,2412.42,1620.08,2413.12,1645.3z"/>
		<path class="st3" d="M2242.39,1645.3h123.77c0,0,2.36-20.14-0.48-37.35c-0.34-2.1-1.43-3.98-3.06-5.64
			c-7.25,2.46-17.89,4.19-29.74-0.06c-9.71-3.48-16.89-8.79-21.89-13.62c-1.28,1.24-26.85,25.61-38.67,25.61
			C2260.2,1614.24,2241.68,1620.08,2242.39,1645.3z"/>
		<path class="st4" d="M2296.39,1594.7c0,0,49.28,23.7,78.36,7.73c0,0,11.48-40.24,25.25-98.78
			c11.41-48.46,24.38-109.45,33.7-170.52c0.5-3.21,0.98-6.72,1.43-10.5c7.51-61.55,7.29-190.86-117.7-156.62L2296.39,1594.7z"/>
		<path class="st3" d="M2399.99,1503.65c11.41-48.46,24.38-109.45,33.7-170.52c0.5-3.21,0.98-6.72,1.43-10.5
			c-7.5-43.26-19.33-77.86-33.33-82.09C2401.79,1240.54,2352.5,1449.52,2399.99,1503.65z"/>
		<path class="st5" d="M2733.98,1167.19c3.79-2.87-14.4-18.81-23.99-21.43c-8.18-2.23-15.62-7.58-17.63-9.12
			c-0.11-0.33-0.26-0.66-0.49-0.95c-4.79-6.35-82.05-93.62-82.05-93.62c-9.44-40.44-56.49-137.27-56.49-137.27
			s-50.09-30.92-63.13,4.07c-13.04,34.99,57.12,128.56,77.45,157.6c20.33,29.04,107.22,90.14,107.22,90.14s0.09-0.06,0.26-0.18
			c2.85,4.86,12.41,20.3,25.08,31.7c15.22,13.69,25.66,15.38,31.63,11.55c5.97-3.83-11.79-26.96-9.61-31.67
			C2724.42,1163.3,2730.19,1170.06,2733.98,1167.19z"/>
		<path class="st5" d="M2405.18,895.41c-15.1-34.15-63.26-0.32-63.26-0.32s-41.22,99.45-48.25,140.38c0,0-71.95,91.7-76.35,98.32
			c-0.21,0.31-0.34,0.64-0.43,0.98c-1.92,1.65-9.03,7.43-17.06,10.15c-9.42,3.18-26.63,20.17-22.68,22.81
			c3.95,2.64,9.31-4.45,11.78,0.12c2.47,4.57-13.89,28.72-7.71,32.19c6.19,3.47,16.51,1.17,30.89-13.4
			c11.97-12.13,20.6-28.11,23.16-33.13c0.18,0.11,0.27,0.16,0.27,0.16s83.11-66.15,101.68-96.34S2420.28,929.56,2405.18,895.41z"/>
		<path class="st4" d="M2541.87,1164.68c5.4,0.76-14.99,236.71-4.06,280.99s0.03,163.96,0.03,163.96s-41.93,12.07-87.28-5.12
			c0,0-14.11-143.6-26.11-184.74c-25.84-88.59-39.2-247.8-39.2-247.8L2541.87,1164.68z"/>
		<path class="st5" d="M2385.25,879.22l65.31,33.38l13.09-45.31c0,0-8.32-15.68-12.08-41.37c-1.58-10.8-2.36-23.37-1.35-37.3
			L2397,815.87c0,0,1.27,4.92,2.12,12.18c0.91,7.85,1.31,18.43-0.92,28.48C2396.28,865.16,2392.42,873.39,2385.25,879.22z"/>
		<path class="st6" d="M2398.2,856.53c30.26-0.81,53.37-30.61,53.37-30.61l-52.45,2.13C2400.03,835.9,2400.43,846.48,2398.2,856.53z
			"/>
		<g>
			<path class="st5" d="M2383.52,839.67c0,0,60.36,15.94,81.18-32.06c22.47-51.8-2.18-89.54-22.68-92.09
				c-40.88-5.08-64.62,10.51-71.8,26.98C2363.04,758.98,2350.22,831.17,2383.52,839.67z"/>
			<path class="st3" d="M2504.7,706.58c4.26-0.41,7.56,1.81,7.56,1.81c-2.7-4.4-7.29-5.66-10.37-5.98
				c-0.09-0.12-0.17-0.25-0.26-0.37c0.21-3.13-0.04-6.77-1.61-9.87c0,0-0.06,3.25-0.84,6.84c-8.05-9.37-19.79-17.04-35.58-22.04
				c-74.32-23.53-118.18,37.38-100.1,52.97c18.08,15.59,59.31,2.81,70.46,1.56c11.15-1.25,14.43,38.22,16.53,40.55
				c2.1,2.33,7.06-9.55,16.23-4.58c9.18,4.97-6.57,25.06-6.57,25.06c0.85,11.09-6.23,31.86-6.23,31.86
				C2504.37,794.16,2525.99,741.71,2504.7,706.58z"/>
			<path class="st7" d="M2397.15,811.58c0-4.01-5.81-6.75-9.69-7.77c-5.75-1.51-10.5,1.03-10.5,5.05c0,4.01,4.28,10.5,8.29,10.5
				C2389.27,819.36,2397.15,815.6,2397.15,811.58z"/>
		</g>
		<path class="st8" d="M2548.99,895.3c-31.11-15.82-59.4-24.29-85.33-28c-9.92,10.16-29.52,25.13-51.45,22.27
			c-16.48-2.16-19.09-10.73-18.8-20.12c-34.45,5.67-53.59,15.45-53.59,15.45l0,0c-0.1,0.16-26.64,43.55-37.64,92.33
			c0,0,7.37,21.37,21.44,31.69l-20.35,155.75c-1.36,16.9-4.23,38.18,12.1,42.63c47.17,12.8,114.51,10.77,162.18,6.89
			c25.75-2.1,45.77-4.74,53.78-5.86c3.4-0.47,5.26-0.78,5.26-0.78c8.03-1.94,13.5-9.13,13.5-17.12c0-1.03-0.1-2.08-0.29-3.12
			l-21.53-119.58l5.31-44.04c15.66-6.83,28.83-15.7,38.95-23.87c14.99-12.08,23.32-22.59,23.32-22.59
			C2578.27,915.65,2548.99,895.3,2548.99,895.3z"/>
		<path class="st9" d="M2477.55,1214.2c25.75-2.1,45.77-4.74,53.78-5.86c3.4-0.47,5.26-0.78,5.26-0.78
			c8.03-1.94,13.5-9.13,13.5-17.12c0-1.03-0.1-2.08-0.29-3.12l-21.53-119.58l5.31-44.04c0,0-35.86,40.57-40.1,84.18
			C2490.21,1141.41,2469.76,1190.36,2477.55,1214.2z"/>
		<path class="st9" d="M2548.99,895.3c0,0,2.1,90.12,23.53,104.54c14.99-12.08,23.32-22.59,23.32-22.59
			C2578.27,915.65,2548.99,895.3,2548.99,895.3z"/>
	</g>
	<g>
		<path class="st3" d="M1865.87,1644.72H1742.1c0,0-2.36-20.14,0.48-37.35c0.34-2.09,1.43-3.98,3.06-5.64
			c7.25,2.46,17.89,4.19,29.74-0.06c9.71-3.49,16.89-8.79,21.89-13.62c1.28,1.24,26.85,25.61,38.67,25.61
			C1848.06,1613.66,1866.57,1619.5,1865.87,1644.72z"/>
		<path class="st3" d="M2036.61,1644.72h-123.77c0,0-2.36-20.14,0.48-37.35c0.34-2.09,1.43-3.98,3.06-5.64
			c7.25,2.46,17.89,4.19,29.74-0.06c9.71-3.49,16.89-8.79,21.89-13.62c1.28,1.24,26.85,25.61,38.67,25.61
			C2018.8,1613.66,2037.31,1619.5,2036.61,1644.72z"/>
		<path class="st4" d="M1982.61,1594.12c0,0-49.28,23.7-78.36,7.73c0,0-11.48-40.24-25.25-98.78
			c-11.41-48.46-24.37-109.45-33.7-170.52c-0.5-3.21-0.98-6.72-1.43-10.5c-7.51-61.55-7.29-190.86,117.7-156.62L1982.61,1594.12z"/>
		<path class="st3" d="M1879,1503.07c-11.41-48.46-24.37-109.45-33.7-170.52c-0.5-3.21-0.98-6.72-1.43-10.5
			c7.5-43.26,19.33-77.86,33.33-82.09C1877.2,1239.95,1926.49,1448.94,1879,1503.07z"/>
		<path class="st4" d="M1737.12,1164.1c-5.4,0.76,14.99,236.71,4.06,280.99s-0.03,163.96-0.03,163.96s41.93,12.07,87.28-5.12
			c0,0,14.11-143.6,26.11-184.74c25.84-88.59,39.2-247.8,39.2-247.8L1737.12,1164.1z"/>
		<path class="st5" d="M1893.74,878.64l-65.31,33.38l-13.09-45.31c0,0,8.32-15.68,12.08-41.37c1.58-10.8,2.36-23.37,1.35-37.3
			l53.22,27.25c0,0-1.27,4.92-2.12,12.18c-0.91,7.85-1.31,18.43,0.92,28.48C1882.71,864.57,1886.57,872.81,1893.74,878.64z"/>
		<path class="st8" d="M1963.62,1206.72c-47.17,12.8-114.51,10.77-162.18,6.89c-25.76-2.1-45.77-4.74-53.78-5.86
			c-3.4-0.47-5.26-0.77-5.26-0.77c-8.03-1.94-13.5-9.13-13.5-17.12c0-1.03,0.1-2.08,0.29-3.13l21.53-119.58l-5.31-44.04l-1.93-16
			l-4.11-34.24l-9.39-78.16c31.11-15.82,59.4-24.29,85.33-28c9.92,10.16,29.52,25.13,51.45,22.27
			c16.48-2.16,18.81-11.23,18.52-20.62c34.45,5.67,53.86,15.95,53.86,15.95l36.55,279.77
			C1977.08,1180.99,1979.95,1202.28,1963.62,1206.72z"/>
		<path class="st6" d="M1880.79,855.95c-30.26-0.81-53.37-30.61-53.37-30.61l52.45,2.13
			C1878.96,835.32,1878.56,845.9,1880.79,855.95z"/>
		<g>
			<path class="st5" d="M1895.47,839.09c0,0-60.36,15.94-81.18-32.06c-22.47-51.8,2.18-89.54,22.68-92.09
				c40.88-5.08,64.62,10.51,71.8,26.98C1915.95,758.4,1928.77,830.59,1895.47,839.09z"/>
			<g>
				<path class="st10" d="M1825.06,823.82c0,0-7.08-20.77-6.23-31.86c0,0-15.75-20.09-6.57-25.06c9.18-4.97,14.13,6.91,16.23,4.58
					c2.1-2.33,5.39-41.8,16.53-40.55c11.15,1.25,52.38,14.03,70.46-1.56c18.08-15.59-25.78-76.5-100.1-52.97
					S1756.23,782.55,1825.06,823.82z"/>
				<path class="st10" d="M1778.71,708.8c0,0-3.37-10.04,0.25-17.21c0,0,0.18,9.88,4.06,14.28
					C1786.89,710.25,1778.71,708.8,1778.71,708.8z"/>
				<path class="st10" d="M1780.26,701.77c0,0-9.19-1.04-13.53,6.03c0,0,6.48-4.38,13.02,0.26L1780.26,701.77z"/>
			</g>
			<path class="st7" d="M1881.84,811c0-4.01,5.81-6.75,9.69-7.77c5.75-1.51,10.5,1.03,10.5,5.05c0,4.01-4.28,10.5-8.29,10.5
				C1889.72,818.77,1881.84,815.01,1881.84,811z"/>
		</g>
		<path class="st11" d="M1857.93,1303.76c0,0-117.11,12.11-152.64-34.73c0,0,8.69-35.11,16.89-81.65
			c6.43-36.46,12.58-79.94,14.02-119.04c3.46-93.89-16.74-165.03-6.19-173.62c21.75-17.71,75.36-26.35,75.36-26.35
			s91.16,196.53,94.29,206.22C1902.78,1084.28,1857.93,1303.76,1857.93,1303.76z"/>
		<path class="st11" d="M2018.24,1055.94c-6.06-35-51.69-149.54-79.07-171.62c-8.22-6.63-40.09-13.3-40.09-13.3l-11.27,201.75
			l38.36,232.39c0,0,60.57-4.64,77.53-48.25l-26.81-154.82C1998.06,1091.83,2021.66,1075.72,2018.24,1055.94z"/>
		<path class="st3" d="M1876.5,1077.21c0-3.57,2.89-6.46,6.46-6.46c3.57,0,6.46,2.89,6.46,6.46s-2.89,6.46-6.46,6.46
			C1879.39,1083.67,1876.5,1080.78,1876.5,1077.21z"/>
		<g>
			<path class="st10" d="M1942.63,1018.25l-65.42,108.15c0,0,100.95,14.48,103.38,12.86c2.42-1.62,56.84-99.74,56.84-99.74
				L1942.63,1018.25z"/>
			<polygon class="st12" points="2037.43,1039.53 2073.06,1018.25 2016.4,1127.74 1980.59,1139.27 			"/>
		</g>
		<path class="st5" d="M1867.42,1107.9c0,0,26.21,16.15,44.5,8.08c18.29-8.08,0.29-18.17-12.11-23.42c0,0,12.09-4.95,12.11-8.88
			c0.02-3.94-9.6-2.74-15.73,0c-6.13,2.74-35.74,3.09-35.74,3.09L1867.42,1107.9z"/>
		<path class="st4" d="M1854.54,1109.35c0,0-59.79,72.26-132.36,78.03c6.43-36.46,12.58-79.94,14.02-119.04
			C1750.73,1067.15,1854.54,1109.35,1854.54,1109.35z"/>
		<path class="st4" d="M1761.01,977.47c1.74-1.69,80.76,75.11,71.07,113.88C1822.39,1130.11,1693.6,1042.92,1761.01,977.47z"/>
		<path class="st11" d="M1876.5,1125.26c-69.45,8.08-146.5-21.71-146.5-21.71c-48.36-95.21-1.43-206.94-1.43-206.94
			s78.48,40.47,73.97,63.09c-1.15,5.8-2.38,14.27-3.55,23.72c-3.43,27.39-6.49,63.02-6.49,65.72c0,3.63,69.46,28.07,69.46,28.07
			c2.05,1.68,3.82,4.08,5.33,6.91C1875.22,1098.83,1876.5,1125.26,1876.5,1125.26z"/>
	</g>
	<g>
		<path class="st10" d="M865.9,786.14c0,0-21.96-46.18-75.01-18.7c-53.05,27.49-1.4,132.29-29.24,158.17
			c-27.84,25.88,10.09,42.83,4.44,61.39c-5.65,18.56,10.49,39.67,47.62,37.19c37.12-2.48,76.22-0.48,92.99-32.96
			c16.77-32.48,12.96-103.94,6.48-113.99C906.68,867.21,865.9,786.14,865.9,786.14z"/>
		<path class="st5" d="M951.86,1032.54l-90.21-54.43c0.5-0.2,2.32-2.92,9.07-22.43c2.87-8.32,4.4-15.54,5.15-21.26
			c0.07-0.57,0.15-1.12,0.2-1.67c0.92-8.32,0.25-13.11,0.25-13.11l19.76,7.14l36.55,13.24c-0.42,9.27,0.87,15.79,2.85,20.26
			c4.77,10.87,13.66,10.94,13.91,10.94L951.86,1032.54z"/>
		<path class="st13" d="M935.48,960.27c-35.32,3-55.21-20.03-59.6-25.86c-0.65-0.85-0.97-1.32-0.97-1.32s0.43-0.12,1.17-0.35
			c2.87-0.85,10.67-3.2,20.01-5.97l36.55,13.24C932.2,949.28,933.5,955.8,935.48,960.27z"/>
		<path class="st5" d="M937.25,947.59c0,0-78.48,8.62-80.08-44.44c-1.61-53.06-13.21-77.35,41.09-82.07
			c54.3-4.73,67.12,14.83,70.32,32.78C978.57,909.94,959.35,945.21,937.25,947.59z"/>
		<path class="st14" d="M790.88,767.45c-1.1-2.45-1.88-4.05-1.88-4.05C789.82,764.53,790.44,765.91,790.88,767.45z"/>
		<path class="st10" d="M902.47,846.99c-27.77-7.03-17.15,42.17-24.17,38.8c-7.85-3.77-21.34-3.71-19.21,5.77
			c2.13,9.48,5.2,12.87,6.8,18.79c1.6,5.92-0.01,17.64-6.47,15.27c-6.46-2.36-66.51-70.93-24.11-124.35
			c42.4-53.41,168.84-20.51,129.03,35.36C957.34,846.46,922.24,852,902.47,846.99z"/>
		<path class="st5" d="M1135.1,949.36c-2.76-6.85-12.12-5.56-19.14,2.39c-6.44,7.3-6.17,27.34-6.08,30.53
			c-8.15,10.13-34.85,38.78-49.96,51.98c-3.31,2.89-9.24,1.9-12.54-1.02c-8.53-7.54-23.32-20.25-31.18-24.94
			c-11.46-6.85-75.47-50.35-83.8-31.85c0,0,4.63,71.21,108.1,113.99c10.13,4.19,21.74,3.05,30.84-3.05
			c15.7-10.52,40-35.2,56.76-98.35C1128.12,989.05,1143.74,970.82,1135.1,949.36z"/>
		<path class="st5" d="M1005.03,1610.05l-41.49,11.01c0,0-25.5-88.83-30.92-150.56c-0.84-9.36-1.19-18.1-0.93-25.82
			c1.2-35.33-73.85-182.58-22.53-216.04c35.31-23.02,86.61-3.83,86.61-3.83s7.15,187.16,7.15,222.29c0,4.79,0.04,11.28,0.1,18.93
			C1003.44,1514.66,1005.03,1610.05,1005.03,1610.05z"/>
		<path class="st5" d="M926.19,1235.89c0,0-33.8,190.22-41.88,232.67c-0.67,3.43-1.15,5.9-1.43,7.22
			c-3.82,17.66-22.92,138.65-22.92,138.65l-41.29-2.17c0,0-12.44-88.92-9.81-152.71c0.65-15.62,2.2-29.73,5.06-40.67
			c14.54-55.58-19.04-192.95,34.09-225.18C901.15,1161.46,926.19,1235.89,926.19,1235.89z"/>
		<path class="st7" d="M932.41,916.74c0-3.28,7.19-6.16,12.27-6.16s11.84,3.11,11.51,5.45c-0.76,5.41-6.43,9.9-11.51,9.9
			S932.41,921.81,932.41,916.74z"/>
		<path class="st5" d="M820.28,985.84c0,0-59.36,118.43-73.89,132.97c-14.54,14.54-65.82,61.38-83.59,74.57
			c0,0-54.52,15.57-53.3,21.99c1.21,6.41,37.96,5.2,42,6.82c4.04,1.62-8.08,11.71,2.02,11.31c6.63-0.26,13.25-12.01,17.02-20.05l0,0
			c0,0,92.81-45.37,106.54-52.64c13.73-7.27,54.92-58.96,62.19-80.76C846.53,1058.23,820.28,985.84,820.28,985.84z"/>
		<path class="st15" d="M1035.06,1074.09c11.06-27.35,4.49-55.23,4.49-55.23c-38.41-43.37-62.52-47.41-70.66-47.28
			c-26.97-5.04-76.9-1.53-104.15,1c0.03-0.44,0.04-0.67,0.04-0.67s-43.84,3.4-56.28,17.92c0,0-0.02,0.01-0.05,0.05
			c-12.49,14.61-56.78,88.96-56.78,88.96s-2.11,18.16,18.05,37.87c7.21,7.04,17.25,14.28,31.27,20.96c3.76,1.79,7.31,2.5,10.66,2.28
			l0,0l-41.03,198.81c15.24,24.9,46.98,41.14,83.29,51.13c75.73,20.84,171.35,14.53,178.71,3.07
			c7.57-47.82-3.48-185.48-18.77-289.75C1024.26,1094.58,1030.92,1084.38,1035.06,1074.09z"/>
		<path class="st10" d="M884.31,1468.56c-0.67,3.43-1.15,5.9-1.43,7.22c-3.82,17.66-22.92,138.65-22.92,138.65l-41.29-2.17
			c0,0-12.44-88.92-9.81-152.71C819.7,1464.66,841.58,1470.34,884.31,1468.56z"/>
		<path class="st4" d="M918.87,1645.21H815.53c0,0-1.97-16.99,0.4-31.5c0.29-1.77,1.2-3.35,2.55-4.76
			c6.05,2.07,14.94,3.53,24.83-0.05c8.1-2.94,15.33-8.4,19.51-12.48c1.07,1.05,21.19,22.59,31.06,22.59
			C904,1619.01,919.46,1623.93,918.87,1645.21z"/>
		<path class="st10" d="M1005.03,1610.05l-41.49,11.01c0,0-25.5-88.83-30.92-150.56c17.08,1.22,46.77,2.14,70.39-4.46
			C1003.44,1514.66,1005.03,1610.05,1005.03,1610.05z"/>
		<path class="st4" d="M1061.82,1645.21H958.48c0,0-1.97-16.99,0.4-31.5c0.29-1.77-0.02-3.29,1.33-4.69
			c6.05,2.07,16.16,3.47,26.05-0.12c8.1-2.94,14.37-8.25,18.55-12.33c1.07,1.05,22.15,22.44,32.02,22.44
			C1046.95,1619.01,1062.41,1623.93,1061.82,1645.21z"/>
		<path class="st16" d="M853.9,1389.88c-36.31-9.99-68.05-26.24-83.29-51.13l41.03-198.81
			C811.65,1139.93,901.92,1320.69,853.9,1389.88z"/>
		<path class="st16" d="M808.5,989.82c0,0-8.13,103.38-38.78,126.88c-20.16-19.71-18.05-37.87-18.05-37.87s44.29-74.35,56.78-88.96
			C808.47,989.84,808.5,989.82,808.5,989.82z"/>
		<path class="st16" d="M1035.06,1074.09c-4.2,10.43-10.98,20.78-21.65,29.46c-2.62-9.18-7.69-30.06-1.11-33.81
			C1020.78,1064.9,1035.06,1074.09,1035.06,1074.09z"/>
	</g>
	<g>
		<g>
			<path class="st16" d="M1284.49,781.22c0,0-60.48-8.48-80.59,103.78c-14.16,79.09,24.63,120.11-0.4,139.4
				c-25.04,19.3-35.54,0-35.54,0s2.21,42.01,72.18,39.13c69.97-2.88,185.32-10.76,196.77-44.07
				C1448.35,986.16,1419.59,737.2,1284.49,781.22z"/>
			<path class="st5" d="M1404.95,1033.7l-99.2-35.49c0.45-0.29,1.7-3.32,4.45-23.78c1.17-8.72,1.23-16.1,0.83-21.86
				c-0.04-0.58-0.08-1.13-0.14-1.68c-0.74-8.34-2.35-12.9-2.35-12.9l20.78,3.09l30.45-10.24c1.42,9.17,11.98,31.28,14.8,35.27
				c6.83,9.71,13.53,5.53,13.53,5.53L1404.95,1033.7z"/>
			<path class="st13" d="M1367.16,951.55c-34.03,9.93-61.41-9.88-66.88-14.72c-0.81-0.7-1.22-1.1-1.22-1.1s0.39-0.21,1.08-0.58
				c2.65-1.4,9.82-5.25,18.43-9.82l41.4,2.97C1361.39,937.48,1364.57,945.53,1367.16,951.55z"/>
			<path class="st5" d="M1363.05,937.59c0,0-75.21,23.99-87.3-27.7c-12.08-51.69-28.27-73.2,24.02-88.59
				c52.28-15.39,68.73,1.24,75.42,18.2C1396.1,892.5,1384.25,930.88,1363.05,937.59z"/>
			<path class="st5" d="M1448.98,1610.05l-41.49,11.01c0,0-25.5-88.83-30.92-150.56c-0.84-9.36-1.19-18.1-0.93-25.82
				c1.2-35.33-73.85-182.58-22.53-216.04c35.31-23.02,86.61-3.83,86.61-3.83s7.15,187.16,7.15,222.29c0,4.79,0.04,11.28,0.1,18.93
				C1447.4,1514.66,1448.98,1610.05,1448.98,1610.05z"/>
			<path class="st5" d="M1370.14,1235.89c0,0-33.8,190.22-41.88,232.67c-0.67,3.43-1.15,5.9-1.43,7.22
				c-3.82,17.66-22.92,138.65-22.92,138.65l-41.29-2.17c0,0-12.44-88.92-9.81-152.71c0.65-15.62,2.21-29.73,5.06-40.67
				c14.54-55.58-19.04-192.95,34.09-225.18C1345.1,1161.46,1370.14,1235.89,1370.14,1235.89z"/>
			<path class="st17" d="M1348.12,908.83c-0.65-3.22,5.83-7.46,10.8-8.47c4.97-1.01,12.22,0.7,12.36,3.06
				c0.33,5.45-4.35,10.98-9.32,11.98C1356.99,916.41,1349.13,913.81,1348.12,908.83z"/>
			<path class="st5" d="M1264.23,985.84c0,0-59.36,118.43-73.89,132.97c-14.54,14.54-65.82,61.38-83.59,74.57
				c0,0-54.52,15.57-53.3,21.99c1.21,6.41,37.96,5.2,42,6.82c4.04,1.62-8.08,11.71,2.02,11.31c6.63-0.26,13.25-12.01,17.02-20.05
				c0,0,92.81-45.37,106.54-52.64c13.73-7.27,54.92-58.96,62.19-80.76C1290.49,1058.23,1264.23,985.84,1264.23,985.84z"/>
			<path class="st5" d="M1710.68,1148.48c-0.77-6.48-57.44-5-57.44-5c-20.9-7.25-83.87-36.57-102.1-46.08
				c-18.23-9.51-110.36-104.7-110.36-104.7s-3.34,76.93,10.13,95.56c13.47,18.62,68.26,55.58,83.54,58.4s117.42,18.27,117.42,18.27
				c6.01,6.54,15.85,15.76,22.25,14.03c9.75-2.64-4.83-8.64-1.46-11.39S1711.44,1154.96,1710.68,1148.48z"/>
			<path class="st18" d="M1479.02,1074.09c11.06-27.35,4.49-55.23,4.49-55.23c-24.19-28.24-45.79-39.5-59.27-43.98
				c-9.49-4.28-28.21-6.07-47.56-6.19c3.89,6.99,18.7,34.34-5.75,37.85c-28.13,4.05-59.28-26.8-60.74-30.72
				c-0.4-1.05,2.58-2.54,7.61-4.05c-3.25,0.27-6.3,0.54-9.11,0.8c0.03-0.44,0.04-0.67,0.04-0.67s-43.84,3.4-56.28,17.92
				c0,0-0.02,0.01-0.05,0.05c-12.49,14.61-56.78,88.96-56.78,88.96s-2.11,18.16,18.05,37.87c7.21,7.04,17.25,14.28,31.27,20.96
				c13.85,6.6,24.81-1.46,33.45-17l2.73,10.15l1.73,6.46c1.07,3.96,0.9,8.15-0.48,12.01l-0.93,2.59l-66.87,186.89
				c15.24,24.9,46.98,41.14,83.29,51.13c75.73,20.84,171.35,14.53,178.71,3.07c6.24-39.43-3.82-135.5-14.83-228.01
				c-0.34-2.81-0.67-5.58-0.99-8.3c-0.98-8.17-1.93-15.92-2.88-23.38c-1.22-9.46-2.45-18.44-3.78-27.18
				c1.13-0.83,2.23-1.66,3.28-2.52C1468.04,1094.87,1474.81,1084.52,1479.02,1074.09z"/>
			<path class="st15" d="M1328.26,1468.56c-0.67,3.43-1.15,5.9-1.43,7.22c-3.82,17.66-22.92,138.65-22.92,138.65l-41.29-2.17
				c0,0-12.44-88.92-9.81-152.71C1263.66,1464.66,1285.54,1470.34,1328.26,1468.56z"/>
			<path class="st4" d="M1362.82,1645.21h-103.34c0,0-1.97-16.99,0.4-31.5c0.29-1.77,1.2-3.35,2.55-4.76
				c6.05,2.07,14.94,3.53,24.83-0.05c8.1-2.94,15.29-8.12,19.46-12.2c1.07,1.05,21.23,22.31,31.1,22.31
				C1347.95,1619.01,1363.41,1623.93,1362.82,1645.21z"/>
			<path class="st15" d="M1448.98,1610.05l-41.49,11.01c0,0-25.5-88.83-30.92-150.56c17.08,1.22,46.77,2.14,70.38-4.46
				C1447.4,1514.66,1448.98,1610.05,1448.98,1610.05z"/>
			<path class="st4" d="M1505.77,1645.21h-103.34c0,0-1.97-16.99,0.4-31.5c0.29-1.77-0.26-4.16,1.1-5.57
				c6.05,2.07,16.39,4.34,26.28,0.75c8.1-2.94,14.59-8.57,18.77-12.64c1.07,1.05,21.93,22.76,31.8,22.76
				C1490.9,1619.01,1506.36,1623.93,1505.77,1645.21z"/>
			<path class="st19" d="M1252.45,989.82c0,0-8.13,103.38-38.78,126.88c-20.16-19.71-18.05-37.87-18.05-37.87
				s44.29-74.35,56.78-88.96C1252.43,989.84,1252.45,989.82,1252.45,989.82z"/>
			<path class="st19" d="M1479.02,1074.09c-4.2,10.43-10.98,20.78-21.65,29.46c-2.62-9.18-7.69-30.06-1.11-33.81
				C1464.73,1064.9,1479.02,1074.09,1479.02,1074.09z"/>
			<g>
				<path class="st19" d="M1460.74,1156.64c-26.26,11.86-52.33,15.98-76.19,15.98c-39.14,0-72.3-11.07-90.48-17.15
					c-2.62-0.87-8.46-2.51-12.64-3.61l0.52-1.44c1.65-4.6,1.85-9.6,0.59-14.33l-1.42-5.28c4.42,1.33,11.93,5.17,18.71,7.44
					c26.64,8.89,95.95,21.27,158.03-4.98C1458.82,1140.72,1459.76,1148.48,1460.74,1156.64z"/>
			</g>
			<g>
				<path class="st15" d="M1389.66,1156.67c0,0-15.03-19.69-22.96-17.57c-7.93,2.12-12.47,42.7,2.37,43.92
					C1383.9,1184.24,1389.66,1156.67,1389.66,1156.67z"/>
				<path class="st15" d="M1389.66,1156.67c0,0,15.03-19.69,22.96-17.57c7.93,2.12,12.47,42.7-2.37,43.92
					C1395.41,1184.24,1389.66,1156.67,1389.66,1156.67z"/>
				<path class="st16" d="M1382.59,1156.67c0-3.9,3.16-7.07,7.07-7.07s7.07,3.16,7.07,7.07c0,3.9-3.16,7.07-7.07,7.07
					S1382.59,1160.58,1382.59,1156.67z"/>
			</g>
			<path class="st16" d="M1382.59,846.23c0,0-10.1-41.88-56.33-41.59c-8.08,0.05-39.57,7.67-57.75,32.83
				c-5.43,7.52-12.38,43.8-16.36,54.09c-13.34,34.42,22.42,106.11,24.84,123.67c2.42,17.57-12.11,19.87-12.11,19.87
				s4.85,18.29,38.7,3.75c19.89-8.54,34.96-61.12,0.57-123.4c-12.65-22.91-5.37-51.75,16.61-65.95
				c11.43-7.38,16.51-29.32,16.51-29.32c14.32-3.03,48.68,36.45,48.68,36.45L1382.59,846.23z"/>
		</g>
		<path class="st16" d="M1253.01,1459.55l-11.36,10.17c0,0,4.24,6.06,17.26,5.65c13.03-0.4,19.08,2.42,26.35,6.06
			c7.27,3.63,15.08-0.81,25.71,0c10.63,0.81,19.52,2.9,24.37,1.45l-6.88-14.32C1328.46,1468.56,1271.23,1471.18,1253.01,1459.55z"/>
		<path class="st16" d="M1376.45,1469.68l-7.96,12.45c0,0,5.33,4.92,17.16,1.57c11.83-3.35,18.06-1.98,25.59-0.1
			s13.61-4.2,23.54-5.83c9.93-1.63,18.58-1.61,22.66-4.12l-10.32-10.9C1447.13,1462.76,1396.41,1475.38,1376.45,1469.68z"/>
	</g>
	<g>
		<g>
			<g>
				<path class="st20" d="M2180.78,1624.59l-95.94-756.48h4.33l116.53,755.93C2206.26,1628.67,2181.47,1630.19,2180.78,1624.59z"/>
			</g>
			<g>
				<path class="st15" d="M2032.07,838.21c-8.13-7.36-8.75-19.91-1.39-28.04c7.36-8.13,19.91-8.75,28.04-1.39
					c8.13,7.36,8.75,19.91,1.39,28.04C2052.75,844.95,2040.2,845.57,2032.07,838.21z"/>
				<polygon class="st16" points="2157.58,919.53 2154.08,923.39 2135.02,908.23 2140.58,902.09 				"/>
				<polygon class="st15" points="2063.52,812.58 2107.04,856.15 2120.95,870.06 2123.72,872.83 2150.57,899.7 2134.26,917.72 
					2104.05,894.55 2100.95,892.15 2085.3,880.17 2036.32,842.62 				"/>
				<path class="st21" d="M2065,812.74l-28.37,31.33c-0.81,0.89-2.19,0.96-3.08,0.15l0,0c-0.89-0.81-0.96-2.19-0.15-3.09
					l28.37-31.33c0.81-0.89,2.19-0.96,3.08-0.15l0,0C2065.74,810.46,2065.81,811.84,2065,812.74z"/>
				<polygon class="st16" points="2123.72,872.83 2150.57,899.7 2134.26,917.72 2104.05,894.55 				"/>
			</g>
			<path class="st20" d="M2069.58,868.11c0.54,0.41,7.34,26.1,39.17,30.04L2069.58,868.11z"/>
		</g>
		<path class="st16" d="M2248.41,1645.14h-108.86c1.11-7.25,4.53-13.76,9.52-18.74c6.11-6.11,14.52-9.89,23.79-9.89h42.21
			C2231.9,1616.51,2245.96,1628.97,2248.41,1645.14z"/>
	</g>
	<g>
		<g>
			<g>
				<path class="st20" d="M1662.68,1625.62l-89.19-703.21h4.02l108.32,702.7C1686.37,1629.41,1663.33,1630.82,1662.68,1625.62z"/>
			</g>
			<g>
				<path class="st15" d="M1524.44,894.62c-7.56-6.84-8.14-18.51-1.3-26.07c6.84-7.56,18.51-8.14,26.07-1.3
					c7.56,6.84,8.14,18.51,1.3,26.07C1543.67,900.88,1532,901.46,1524.44,894.62z"/>
				<polygon class="st16" points="1641.11,970.21 1637.86,973.8 1620.14,959.71 1625.31,954 				"/>
				<polygon class="st15" points="1553.68,870.79 1594.14,911.3 1607.07,924.22 1609.64,926.8 1634.6,951.78 1619.44,968.52 
					1591.36,946.99 1588.47,944.76 1573.93,933.62 1528.4,898.72 				"/>
				<path class="st21" d="M1555.05,870.94l-26.37,29.13c-0.75,0.83-2.04,0.9-2.87,0.14l0,0c-0.83-0.75-0.9-2.04-0.14-2.87
					l26.37-29.13c0.75-0.83,2.04-0.9,2.87-0.14l0,0C1555.74,868.82,1555.81,870.11,1555.05,870.94z"/>
				<polygon class="st16" points="1609.64,926.8 1634.6,951.78 1619.44,968.52 1591.36,946.99 				"/>
			</g>
			<path class="st20" d="M1559.31,922.41c0.5,0.38,6.82,24.26,36.41,27.92L1559.31,922.41z"/>
		</g>
		<path class="st16" d="M1725.55,1644.72h-101.19c1.03-6.74,4.21-12.79,8.85-17.42c5.68-5.68,13.5-9.2,22.12-9.2h39.24
			C1710.21,1618.11,1723.27,1629.69,1725.55,1644.72z"/>
	</g>
	<g>
		<path class="st22" d="M1364.31,660.4c0,0-20.37-6.09-21.59,5.23c-1.22,11.32,15.79,10.54,21.53,8.54
			c5.73-1.99,6.2-12.29,6.2-12.29l-3.07-0.74L1364.31,660.4z"/>
		<path class="st22" d="M1380.72,604.34l-2.01-0.1l-14.4,56.17l6.14,1.47l8.07-45.2c1.73,4.17,6.08,8.04,16.42,10.53
			c1.19,0.29,2.45,0.53,3.77,0.71C1379.63,625.21,1380.7,604.95,1380.72,604.34z"/>
	</g>
	<g>
		<path class="st15" d="M1467.87,420.83c0,0-28.25,2.15-24.37,16.82s24.68,5.56,30.86,0.35s1.84-18.26,1.84-18.26l-4.17,0.55
			L1467.87,420.83z"/>
		<path class="st15" d="M1461.5,343.24l-2.55,0.83l8.91,76.76l8.34-1.1l-11.55-60.09c4.14,4.36,11.4,7.1,25.46,5.25
			c1.62-0.21,3.3-0.51,5.03-0.91C1470.12,369.73,1461.77,344.02,1461.5,343.24z"/>
	</g>
	<g>
		<path class="st15" d="M1677.43,671.53c0,0-34.7-6.82-34.91,12.11c-0.21,18.93,27.83,14.92,37.01,10.7
			c9.18-4.22,8.3-21.35,8.3-21.35l-5.2-0.73L1677.43,671.53z"/>
		<path class="st15" d="M1695.63,576.08l-3.34,0.15l-14.86,95.31l10.4,1.46l6.13-76.13c3.53,6.62,11.35,12.34,28.87,14.8
			c2.02,0.28,4.14,0.48,6.36,0.58C1697.16,610.81,1695.7,577.1,1695.63,576.08z"/>
	</g>
	<path class="st15" d="M1110.86,517.18c1.49,0.72,27.26,2.04,50.98-23.62l36.26,61.62c0,0,5,22.05-17.59,25.24
		c-12.56,1.77-13.81-8.7-8.68-16.77c4.09-6.44,13.79-10.7,13.79-10.7l-21.15-35.94c0,0-16.3,17.71-35.78,17.51l19.48,38.52
		c0,0,8.68,20.77-11.75,26.41c-20.43,5.64-13.94-21.17,2.83-22.86L1110.86,517.18z"/>
	<path class="st23" d="M2997.82,1652.66H193.63c-1.75,0-3.18-1.43-3.18-3.18v-1.09c0-1.75,1.43-3.18,3.18-3.18h2804.18
		c1.75,0,3.18,1.43,3.18,3.18v1.09C3001,1651.23,2999.57,1652.66,2997.82,1652.66z"/>
</g>
</svg>
